<svg xmlns="http://www.w3.org/2000/svg" xmlns:xlink="http://www.w3.org/1999/xlink" width="309" zoomAndPan="magnify" viewBox="262 359 309 85" height="85" preserveAspectRatio="xMidYMid meet" version="1.0"><defs><g/><clipPath id="f66a183df1"><path d="M 134 10 L 215 10 L 215 84 L 134 84 Z M 134 10 " clip-rule="nonzero"/></clipPath><clipPath id="977667581b"><path d="M 211.75 8.734375 L 216.039062 13.472656 L 137 84.972656 L 132.710938 80.230469 Z M 211.75 8.734375 " clip-rule="nonzero"/></clipPath><clipPath id="237442a079"><path d="M 213.894531 11.101562 C 215.082031 12.414062 214.980469 14.433594 213.667969 15.621094 L 139.386719 82.8125 C 138.078125 83.996094 136.054688 83.894531 134.871094 82.585938 C 133.6875 81.277344 133.789062 79.253906 135.097656 78.070312 L 209.378906 10.878906 C 210.691406 9.691406 212.710938 9.792969 213.894531 11.101562 Z M 213.894531 11.101562 " clip-rule="nonzero"/></clipPath><clipPath id="3950351a81"><path d="M 0 0 L 81 0 L 81 74 L 0 74 Z M 0 0 " clip-rule="nonzero"/></clipPath><clipPath id="e67fc1aa72"><path d="M 77.75 -1.265625 L 82.039062 3.472656 L 3 74.972656 L -1.289062 70.230469 Z M 77.75 -1.265625 " clip-rule="nonzero"/></clipPath><clipPath id="fff658de32"><path d="M 79.894531 1.101562 C 81.082031 2.414062 80.980469 4.433594 79.667969 5.621094 L 5.386719 72.8125 C 4.078125 73.996094 2.054688 73.894531 0.871094 72.585938 C -0.3125 71.277344 -0.210938 69.253906 1.097656 68.070312 L 75.378906 0.878906 C 76.691406 -0.308594 78.710938 -0.207031 79.894531 1.101562 Z M 79.894531 1.101562 " clip-rule="nonzero"/></clipPath><clipPath id="03fd7bc4f1"><rect x="0" width="81" y="0" height="74"/></clipPath><clipPath id="dbc3e73695"><path d="M 0.320312 0.28125 L 308.238281 0.28125 L 308.238281 80 L 0.320312 80 Z M 0.320312 0.28125 " clip-rule="nonzero"/></clipPath><clipPath id="1dcab540da"><rect x="0" width="309" y="0" height="80"/></clipPath><clipPath id="acaaa3ce0a"><rect x="0" width="309" y="0" height="85"/></clipPath></defs><g transform="matrix(1, 0, 0, 1, 262, 359)"><g clip-path="url(#acaaa3ce0a)"><g clip-path="url(#f66a183df1)"><g clip-path="url(#977667581b)"><g clip-path="url(#237442a079)"><g transform="matrix(1, 0, 0, 1, 134, 10)"><g clip-path="url(#03fd7bc4f1)"><g clip-path="url(#3950351a81)"><g clip-path="url(#e67fc1aa72)"><g clip-path="url(#fff658de32)"><path fill="#ffffff" d="M 77.75 -1.265625 L 82.039062 3.472656 L 3.019531 74.953125 L -1.273438 70.210938 Z M 77.75 -1.265625 " fill-opacity="1" fill-rule="nonzero"/></g></g></g></g></g></g></g></g><g clip-path="url(#dbc3e73695)"><g transform="matrix(1, 0, 0, 1, 0, 0.000000000000056843)"><g clip-path="url(#1dcab540da)"><g fill="#ffffff" fill-opacity="1"><g transform="translate(0.382715, 64.837673)"><g><path d="M 48 -41.890625 L 54.109375 -41.890625 L 31.421875 0 L 24.4375 0 L 1.75 -41.890625 L 7.859375 -41.890625 L 27.9375 -3.484375 Z M 48 -41.890625 "/></g></g></g><g fill="#ffffff" fill-opacity="1"><g transform="translate(78.585624, 64.837673)"><g><path d="M 5.234375 0 L 5.234375 -41.890625 L 47.125 -41.890625 L 47.125 -37.53125 L 10.46875 -37.53125 L 10.46875 -23.5625 L 45.390625 -23.5625 L 45.390625 -19.203125 L 10.46875 -19.203125 L 10.46875 -4.359375 L 47.125 -4.359375 L 47.125 0 Z M 5.234375 0 "/></g></g></g><g fill="#ffffff" fill-opacity="1"><g transform="translate(149.80613, 64.837673)"><g><path d="M 32.96875 -22.09375 L 57.609375 0 L 50.1875 0 L 29.328125 -18.703125 L 9.171875 0 L 1.75 0 L 25.5625 -22.09375 L 3.484375 -41.890625 L 10.90625 -41.890625 L 29.1875 -25.46875 L 46.890625 -41.890625 L 54.3125 -41.890625 Z M 32.96875 -22.09375 "/></g></g></g><g fill="#ffffff" fill-opacity="1"><g transform="translate(231.500249, 64.837673)"><g><path d="M 50.625 -41.890625 L 50.625 -37.53125 L 29.671875 -37.53125 L 29.671875 0 L 24.4375 0 L 24.4375 -37.53125 L 3.484375 -37.53125 L 3.484375 -41.890625 Z M 50.625 -41.890625 "/></g></g></g></g></g></g></g></g></svg>