<svg xmlns="http://www.w3.org/2000/svg" viewBox="0 0 309 85" role="img" aria-labelledby="title desc">
  <title id="title">VEXT logo</title>
  <desc id="desc">VEXT wordmark</desc>
  <g fill="#00382b">
    <path transform="translate(134 10)" d="M 77.75 -1.265625 L 82.039062 3.472656 L 3.019531 74.953125 L -1.273438 70.210938 Z"/>
    <path transform="translate(0.382715 64.837673)" d="M 48 -41.890625 L 54.109375 -41.890625 L 31.421875 0 L 24.4375 0 L 1.75 -41.890625 L 7.859375 -41.890625 L 27.9375 -3.484375 Z M 48 -41.890625"/>
    <path transform="translate(78.585624 64.837673)" d="M 5.234375 0 L 5.234375 -41.890625 L 47.125 -41.890625 L 47.125 -37.53125 L 10.46875 -37.53125 L 10.46875 -23.5625 L 45.390625 -23.5625 L 45.390625 -19.203125 L 10.46875 -19.203125 L 10.46875 -4.359375 L 47.125 -4.359375 L 47.125 0 Z M 5.234375 0"/>
    <path transform="translate(149.80613 64.837673)" d="M 32.96875 -22.09375 L 57.609375 0 L 50.1875 0 L 29.328125 -18.703125 L 9.171875 0 L 1.75 0 L 25.5625 -22.09375 L 3.484375 -41.890625 L 10.90625 -41.890625 L 29.1875 -25.46875 L 46.890625 -41.890625 L 54.3125 -41.890625 Z M 32.96875 -22.09375"/>
    <path transform="translate(231.500249 64.837673)" d="M 50.625 -41.890625 L 50.625 -37.53125 L 29.671875 -37.53125 L 29.671875 0 L 24.4375 0 L 24.4375 -37.53125 L 3.484375 -37.53125 L 3.484375 -41.890625 Z M 50.625 -41.890625"/>
  </g>
</svg>
